<?xml version="1.0" encoding="UTF-8"?><svg xmlns="http://www.w3.org/2000/svg" xmlns:xlink="http://www.w3.org/1999/xlink" height="335.8" preserveAspectRatio="xMidYMid meet" version="1.0" viewBox="75.3 79.6 342.9 335.8" width="342.9" zoomAndPan="magnify"><g/><g id="change1_1"><path d="M246.795,79.596c-94.69,0-171.459,76.756-171.459,171.485c0,75.72,49.111,139.978,117.257,162.671 c8.584,1.562,11.711-3.748,11.711-8.276c0-4.068-0.134-14.853-0.236-29.167c-47.691,10.361-57.746-22.976-57.746-22.976 c-7.804-19.804-19.048-25.062-19.048-25.062c-15.562-10.656,1.19-10.438,1.19-10.438c17.219,1.216,26.27,17.667,26.27,17.667 c15.281,26.212,40.124,18.613,49.904,14.238c1.542-11.092,5.968-18.613,10.867-22.912c-38.077-4.311-78.099-19.061-78.099-84.751 c0-18.69,6.69-34.016,17.635-45.99c-1.753-4.349-7.631-21.773,1.695-45.388c0,0,14.379-4.605,47.147,17.59 c13.675-3.812,28.361-5.718,42.926-5.782c14.564,0.064,29.237,1.97,42.913,5.782c32.755-22.195,47.134-17.59,47.134-17.59 c9.339,23.615,3.461,41.039,1.689,45.388c10.969,11.974,17.628,27.3,17.628,45.99c0,65.882-40.105,80.376-78.298,84.623 c6.147,5.296,11.648,15.735,11.648,31.739c0,22.924-0.212,41.409-0.212,47.038c0,4.58,3.103,9.901,11.795,8.226 c68.063-22.694,117.149-86.926,117.149-162.62C418.256,156.352,341.513,79.596,246.795,79.596" fill="#FFF"/></g></svg>